<?xml version="1.0" standalone="no"?>
<!DOCTYPE svg PUBLIC "-//W3C//DTD SVG 20010904//EN"
 "http://www.w3.org/TR/2001/REC-SVG-20010904/DTD/svg10.dtd">
<svg version="1.0" xmlns="http://www.w3.org/2000/svg"
 width="512.000000pt" height="512.000000pt" viewBox="0 0 512.000000 512.000000"
 preserveAspectRatio="xMidYMid meet">
<metadata>
Created by potrace 1.14, written by Peter Selinger 2001-2017
</metadata>
<g transform="translate(0.000000,512.000000) scale(0.100000,-0.100000)"
fill="#000000" stroke="none">
<path d="M2322 4840 c-16 -16 -35 -31 -42 -32 -7 -2 -26 -15 -44 -30 -17 -16
-36 -28 -42 -28 -6 0 -23 -11 -39 -24 -21 -18 -38 -23 -69 -22 -28 2 -47 -3
-60 -16 -11 -10 -26 -16 -33 -14 -7 3 -13 1 -13 -4 0 -6 -7 -10 -15 -10 -8 0
-19 -9 -25 -20 -6 -11 -14 -19 -18 -17 -4 1 -9 -2 -10 -8 -2 -5 -8 -15 -14
-22 -13 -16 -48 -134 -38 -128 5 3 12 0 15 -6 8 -11 -25 -40 -37 -33 -10 7
-98 -45 -98 -58 0 -5 5 -6 12 -2 7 5 8 3 4 -5 -5 -7 -14 -10 -21 -7 -7 2 -26
-12 -42 -32 -38 -47 -46 -62 -36 -62 4 0 19 18 33 40 13 22 28 40 34 40 5 0 0
-10 -12 -23 -35 -37 -52 -92 -51 -162 2 -65 -15 -108 -48 -128 -7 -4 -13 -21
-13 -37 0 -17 -3 -30 -8 -30 -4 0 -7 -13 -7 -30 -1 -16 3 -30 7 -30 5 0 4 -9
-2 -21 -7 -11 -9 -23 -6 -27 3 -3 6 0 6 6 0 16 16 15 18 0 3 -55 15 -122 28
-168 9 -30 18 -66 20 -80 3 -14 7 -32 11 -40 3 -8 8 -31 10 -50 2 -19 8 -39
14 -45 5 -5 9 -18 9 -30 1 -11 7 -36 14 -56 l13 -36 -31 -1 c-36 -1 -66 -32
-66 -69 0 -28 25 -57 40 -48 6 4 16 -7 23 -24 10 -24 16 -28 25 -19 22 22 36
-9 38 -80 1 -37 6 -86 13 -110 8 -31 8 -48 1 -63 -11 -20 -11 -20 -29 3 -22
29 -33 55 -38 91 -4 29 -53 87 -53 63 0 -8 -7 -16 -15 -20 -10 -4 -14 -14 -11
-31 4 -23 -3 -30 -27 -26 -4 1 -12 -10 -17 -24 -5 -14 -14 -25 -20 -25 -8 0
-17 -21 -26 -62 -1 -5 -3 -10 -4 -13 -1 -3 -3 -8 -4 -12 -1 -5 -7 -18 -14 -30
-7 -13 -10 -23 -7 -23 6 0 -33 -60 -45 -70 -11 -9 -20 -41 -10 -35 6 3 10 1
10 -4 0 -6 -4 -11 -8 -11 -4 0 -16 -27 -25 -60 -10 -33 -23 -60 -28 -60 -6 0
-9 -10 -8 -22 3 -28 -9 -68 -21 -68 -5 0 -7 -6 -4 -13 2 -7 -2 -30 -11 -50 -9
-21 -13 -42 -9 -48 3 -6 -2 -19 -12 -30 -9 -10 -14 -22 -11 -25 3 -4 1 -16 -6
-28 -6 -11 -13 -43 -13 -71 -3 -89 -9 -155 -15 -155 -5 0 -7 -25 -10 -152 0
-32 -4 -58 -9 -58 -10 0 -1 -40 12 -57 5 -7 5 -14 -2 -18 -6 -3 -8 -10 -5 -16
3 -5 8 -35 10 -66 2 -32 6 -65 10 -74 3 -9 -1 -23 -9 -32 -14 -14 -14 -16 2
-19 21 -4 74 15 240 88 127 56 457 225 520 265 l33 21 -33 -51 c-26 -42 -32
-64 -34 -114 -1 -34 0 -50 2 -34 6 30 21 36 31 10 4 -9 15 -25 25 -35 10 -10
18 -27 18 -38 0 -35 15 -22 33 30 10 28 22 51 27 51 6 1 15 2 20 3 6 0 14 6
18 12 11 18 54 37 61 28 3 -5 22 -17 42 -27 20 -10 49 -30 64 -45 38 -34 73
-39 92 -13 8 12 21 21 29 21 8 0 22 4 32 9 9 5 35 17 57 27 22 11 42 22 45 26
3 3 18 10 33 13 15 4 27 11 27 17 0 5 16 16 35 23 19 8 60 39 91 67 110 102
241 234 280 282 97 122 103 121 115 -15 4 -52 11 -103 15 -114 11 -31 35 -55
56 -55 10 0 18 -5 18 -12 0 -9 3 -9 12 0 15 15 31 16 22 0 -4 -6 -3 -8 4 -4 6
3 13 2 17 -4 3 -5 11 -10 17 -10 6 0 1 9 -12 20 -13 11 -23 32 -24 50 0 16 -5
30 -10 30 -4 0 -4 6 2 13 6 6 9 28 7 47 -13 131 -28 232 -43 291 -5 19 -9 52
-8 72 1 20 -2 37 -6 37 -4 0 -6 6 -3 13 4 14 13 84 20 167 5 61 4 59 -31 -91
-27 -120 -62 -225 -92 -285 -29 -56 -179 -223 -244 -270 -29 -21 -59 -44 -66
-51 -8 -7 -18 -10 -24 -7 -6 4 -8 2 -5 -3 7 -10 -20 -28 -35 -25 -5 1 -8 -3
-8 -9 0 -5 -4 -7 -10 -4 -5 3 -10 1 -10 -5 0 -6 -4 -8 -10 -5 -6 3 -16 3 -22
-2 -7 -4 -15 -8 -18 -9 -3 0 -21 -4 -40 -8 -68 -14 -144 -12 -198 6 -136 45
-228 136 -317 313 -16 32 -49 77 -73 99 -73 67 -131 213 -131 329 0 30 -16 92
-43 170 -40 114 -43 128 -42 222 2 148 11 181 67 257 16 21 18 36 14 80 -7 61
-15 88 -27 88 -5 0 -6 9 -3 21 5 16 8 18 15 7 6 -8 7 -1 4 21 -7 49 4 93 20
87 8 -3 14 0 14 6 0 6 9 3 20 -7 11 -10 23 -15 27 -12 3 4 12 2 20 -4 10 -9
18 -8 31 5 10 9 22 13 25 10 4 -4 19 5 33 20 19 18 33 25 48 21 16 -5 17 -4 7
4 -17 11 -23 54 -7 44 6 -4 26 -8 46 -10 31 -2 33 -1 13 9 -27 13 -44 53 -45
107 -1 54 17 75 26 31 4 -24 10 -31 21 -26 9 3 13 2 10 -4 -3 -6 1 -10 10 -10
8 0 21 -11 27 -25 6 -14 15 -25 20 -25 5 0 6 -9 3 -20 -4 -14 -2 -20 8 -20 8
0 25 -11 38 -25 13 -13 32 -25 42 -25 10 0 20 -6 23 -14 3 -8 12 -17 20 -20
12 -5 12 -2 3 17 -10 19 -10 20 2 11 17 -14 49 -14 49 -1 0 5 6 5 13 -2 10 -8
17 -7 26 2 9 9 14 9 20 -2 13 -20 61 -23 68 -5 5 12 10 11 31 -8 l25 -23 -6
23 c-4 19 -3 21 9 11 11 -9 14 -8 14 5 0 20 16 21 24 0 3 -8 10 -12 16 -9 5 3
10 1 10 -5 0 -7 7 -10 15 -7 8 4 17 2 21 -4 3 -6 12 -8 19 -5 7 2 17 0 22 -5
5 -5 47 -11 92 -13 71 -3 86 -1 102 15 10 10 19 16 19 13 0 -4 7 0 16 7 14 11
18 10 30 -6 8 -11 21 -27 28 -36 8 -9 17 -27 21 -39 5 -15 13 -20 26 -17 10 3
19 1 19 -4 0 -5 5 -9 10 -9 6 0 10 7 10 15 0 8 7 15 16 15 29 0 69 -38 100
-92 l29 -53 -3 -229 c-3 -172 -1 -227 8 -221 6 4 9 14 6 22 -4 11 -1 13 14 8
27 -8 40 23 17 40 -19 13 -15 35 22 118 12 27 33 83 47 125 15 43 30 82 34 87
4 6 11 30 15 55 4 25 12 56 18 70 10 25 12 36 15 78 1 15 6 21 14 16 8 -5 9
-2 5 10 -4 10 -4 23 0 29 4 7 8 18 9 27 5 34 26 132 39 176 2 6 -8 32 -21 58
-26 51 -30 76 -13 76 6 0 7 5 2 13 -4 6 -8 27 -9 45 -1 17 -7 46 -14 62 -7 17
-10 34 -6 37 3 4 -2 15 -11 26 -10 11 -12 17 -5 13 28 -17 8 14 -58 86 -39 42
-84 103 -100 136 -27 55 -127 162 -151 162 -5 0 -27 13 -49 29 -22 16 -60 34
-85 40 -25 6 -43 16 -40 21 3 6 1 10 -5 10 -6 0 -44 16 -84 35 -41 19 -88 35
-105 35 -45 0 -111 23 -111 38 0 10 -8 12 -31 7 -21 -5 -34 -3 -39 5 -5 8 -38
14 -86 16 -44 2 -106 4 -139 6 -42 2 -66 -2 -80 -12 -19 -14 -19 -14 -5 5 8
11 20 23 25 27 6 5 6 8 -2 8 -6 0 -25 -13 -41 -30z m-245 -156 c-3 -3 -12 -4
-19 -1 -8 3 -5 6 6 6 11 1 17 -2 13 -5z m25 -776 c-5 -32 -14 -29 -19 6 -2 14
2 23 10 23 9 0 12 -10 9 -29z m-35 0 c-3 -8 -6 -5 -6 6 -1 11 2 17 5 13 3 -3
4 -12 1 -19z"/>
<path d="M2065 4720 c-3 -5 -1 -10 4 -10 6 0 11 5 11 10 0 6 -2 10 -4 10 -3 0
-8 -4 -11 -10z"/>
<path d="M2050 3576 c-14 -6 -31 -16 -38 -23 -18 -17 -23 -16 -16 2 4 8 3 15
0 15 -3 0 -13 -18 -22 -40 -9 -22 -20 -37 -25 -34 -5 3 -6 -2 -3 -11 4 -11 12
-14 23 -9 9 4 57 9 106 12 69 3 109 -1 172 -17 97 -25 93 -25 93 -5 0 8 5 12
10 9 18 -11 11 22 -10 46 -11 13 -20 20 -19 14 3 -24 -3 -25 -26 -7 -14 11
-48 23 -75 27 -28 4 -72 13 -98 19 -35 10 -54 10 -72 2z"/>
<path d="M2985 3560 c-4 -6 -1 -10 4 -10 6 0 11 -4 11 -10 0 -6 -9 -6 -25 0
-14 5 -25 6 -25 2 0 -4 -25 -7 -55 -8 -60 0 -107 -25 -113 -60 -2 -14 -1 -16
6 -5 6 8 11 9 13 3 3 -8 17 -8 45 -2 50 12 226 16 274 7 31 -6 33 -5 18 6 -10
8 -15 17 -12 20 4 3 -5 9 -20 13 -14 3 -23 11 -19 17 3 6 1 7 -6 3 -6 -4 -17
-3 -24 3 -23 18 -66 31 -72 21z"/>
<path d="M1930 3529 c0 -5 5 -7 10 -4 6 3 10 8 10 11 0 2 -4 4 -10 4 -5 0 -10
-5 -10 -11z"/>
<path d="M2111 3358 c-30 -5 -74 -20 -98 -34 -37 -22 -42 -28 -33 -44 6 -11
17 -20 25 -20 7 0 17 -10 20 -21 5 -15 9 -18 15 -9 5 7 16 9 30 5 19 -6 21 -4
15 14 -5 16 1 29 24 51 37 38 46 38 47 -2 2 -38 26 -58 70 -58 35 0 64 29 64
64 0 15 6 12 29 -15 17 -18 33 -30 37 -26 8 8 -40 63 -70 79 -30 16 -117 24
-175 16z m129 -48 c0 -5 -4 -10 -9 -10 -6 0 -13 5 -16 10 -3 6 1 10 9 10 9 0
16 -4 16 -10z"/>
<path d="M2852 3329 c-61 -31 -104 -89 -65 -89 9 0 13 3 10 6 -8 8 31 64 44
64 5 0 9 -11 9 -23 0 -32 30 -57 66 -57 37 0 54 16 54 52 0 15 4 28 8 28 10 0
37 -26 55 -53 10 -15 20 -17 49 -12 90 17 -7 96 -127 103 -47 2 -70 -2 -103
-19z m68 -30 c0 -5 -4 -9 -10 -9 -5 0 -10 7 -10 16 0 8 5 12 10 9 6 -3 10 -10
10 -16z"/>
<path d="M3454 3228 c-12 -13 -24 -32 -27 -43 -5 -14 2 -10 21 12 27 31 29 32
46 15 17 -16 17 -16 14 8 -4 33 -29 36 -54 8z"/>
<path d="M1702 3105 c0 -16 2 -22 5 -12 2 9 2 23 0 30 -3 6 -5 -1 -5 -18z"/>
<path d="M3285 2884 c-12 -33 -14 -49 -7 -56 12 -12 24 10 37 70 10 48 -10 39
-30 -14z"/>
<path d="M2340 2833 c-1 -62 52 -102 107 -82 14 5 36 3 60 -8 33 -13 45 -14
88 -2 28 7 68 12 90 11 24 -2 48 4 60 13 17 13 18 14 2 9 -12 -5 -23 0 -33 15
-19 26 -60 27 -93 2 -18 -14 -32 -16 -62 -11 -22 4 -39 5 -39 1 0 -3 -7 4 -15
16 -16 22 -17 22 -102 7 -27 -5 -33 -2 -47 22 -14 26 -15 27 -16 7z"/>
<path d="M2216 2562 c-13 -12 -5 -32 12 -32 10 0 42 -25 72 -56 51 -51 118
-101 124 -93 33 49 36 58 20 73 -18 18 -12 20 66 15 25 -1 68 -3 95 -4 83 -2
88 -4 81 -20 -11 -30 24 -26 66 7 65 52 95 68 123 68 17 0 25 5 22 13 -4 13
-175 15 -205 1 -20 -8 -39 -13 -67 -17 -12 -2 -26 -7 -33 -11 -7 -4 -19 -3
-26 3 -7 6 -22 9 -34 6 -12 -2 -22 1 -22 6 0 6 -3 8 -8 6 -4 -3 -25 4 -47 14
-29 14 -67 21 -137 23 -53 2 -99 1 -102 -2z"/>
<path d="M841 499 c-1 -25 29 -120 55 -171 33 -66 39 -60 8 7 -14 31 -34 84
-44 118 -10 34 -19 55 -19 46z"/>
<path d="M751 472 c-2 -57 92 -239 146 -283 9 -8 0 9 -19 36 -45 63 -86 145
-109 215 -10 31 -18 45 -18 32z"/>
<path d="M675 351 c7 -54 40 -148 63 -181 9 -14 24 -37 31 -52 8 -16 16 -26
18 -24 3 2 -10 33 -28 67 -18 35 -45 102 -61 149 -22 66 -28 75 -23 41z"/>
<path d="M554 337 c-5 -7 -13 -20 -17 -30 -4 -10 -11 -15 -17 -12 -5 3 -10 -3
-10 -14 0 -11 -4 -23 -10 -26 -5 -3 -10 -14 -10 -24 0 -10 -7 -24 -15 -31 -9
-7 -14 -19 -11 -27 3 -7 2 -13 -2 -13 -4 0 -8 -9 -9 -20 -1 -11 -11 -33 -22
-48 -13 -19 -18 -37 -14 -52 5 -19 3 -22 -10 -17 -10 4 -17 3 -17 -2 0 -11 39
-18 108 -20 l53 -2 -6 33 c-3 18 1 71 9 117 8 47 13 88 10 92 -2 4 0 10 6 14
5 3 10 13 10 21 0 9 -5 12 -12 8 -7 -5 -8 -3 -3 6 10 16 14 60 5 60 -3 -1 -10
-6 -16 -13z"/>
<path d="M947 240 c19 -32 70 -95 56 -70 -14 27 -65 100 -70 100 -2 0 4 -14
14 -30z"/>
<path d="M1019 130 c16 -45 60 -135 60 -125 1 17 -33 100 -51 126 l-18 24 9
-25z"/>
</g>
</svg>
